rotated_Sprint_06300001_forces_filt50Hz.mot
version=1
nRows=43
nColumns=19
inDegrees=yes
endheader
time	R_ground_force_vx	R_ground_force_vy	R_ground_force_vz	R_ground_force_px	R_ground_force_py	R_ground_force_pz	R_ground_torque_x	R_ground_torque_y	R_ground_torque_z	L_ground_force_vx	L_ground_force_vy	L_ground_force_vz	L_ground_force_px	L_ground_force_py	L_ground_force_pz	L_ground_torque_x	L_ground_torque_y	L_ground_torque_z	
0.000000	  0.000000	  0.000000	  0.000000	  0.227291	  0.000000	 -0.326238	  0.000000	  0.000000	  0.000000	  0.000000	  0.000000	  0.000000	  0.889518	  0.000000	 -0.215242	  0.000000	  0.000000	  0.000000
0.000500	  0.000000	  0.000000	  0.000000	  0.226495	 -0.000000	 -0.327909	  0.000000	  0.000000	  0.000000	  0.000000	  0.000000	  0.000000	  0.892465	 -0.000000	 -0.213525	  0.000000	  0.000000	  0.000000
0.001000	  0.000000	  0.000000	  0.000000	  0.225700	 -0.000000	 -0.329581	  0.000000	  0.000000	  0.000000	  0.000000	  0.000000	  0.000000	  0.895413	 -0.000000	 -0.211809	  0.000000	  0.000000	  0.000000
0.001500	  0.000000	  0.000000	  0.000000	  0.224905	 -0.000000	 -0.331252	  0.000000	  0.000000	  0.000000	  0.000000	  0.000000	  0.000000	  0.898360	 -0.000000	 -0.210092	  0.000000	  0.000000	  0.000000
0.002000	  0.000000	  0.000000	  0.000000	  0.224109	 -0.000000	 -0.332924	  0.000000	  0.000000	  0.000000	  0.000000	  0.000000	  0.000000	  0.901308	 -0.000000	 -0.208376	  0.000000	  0.000000	  0.000000
0.002500	  0.000000	  0.000000	  0.000000	  0.223313	  0.000000	 -0.334595	  0.000000	  0.000000	  0.000000	  0.000000	  0.000000	  0.000000	  0.904255	  0.000000	 -0.206659	  0.000000	  0.000000	  0.000000
0.003000	  0.000000	  0.000000	  0.000000	  0.222518	  0.000000	 -0.336266	  0.000000	  0.000000	  0.000000	  0.000000	  0.000000	  0.000000	  0.907202	  0.000000	 -0.204942	  0.000000	  0.000000	  0.000000
0.003500	  0.000000	  0.000000	  0.000000	  0.221723	  0.000000	 -0.337938	  0.000000	  0.000000	  0.000000	  0.000000	  0.000000	  0.000000	  0.910150	  0.000000	 -0.203226	  0.000000	  0.000000	  0.000000
0.004000	  0.000000	  0.000000	  0.000000	  0.220927	  0.000000	 -0.339609	  0.000000	  0.000000	  0.000000	  0.000000	  0.000000	  0.000000	  0.913097	  0.000000	 -0.201509	  0.000000	  0.000000	  0.000000
0.004500	  0.000000	  0.000000	  0.000000	  0.220132	  0.000000	 -0.341281	  0.000000	  0.000000	  0.000000	  0.000000	  0.000000	  0.000000	  0.916045	  0.000000	 -0.199793	  0.000000	  0.000000	  0.000000
0.005000	  0.000000	  0.000000	  0.000000	  0.219336	  0.000000	 -0.342952	  0.000000	  0.000000	  0.000000	  0.000000	  0.000000	  0.000000	  0.918992	  0.000000	 -0.198076	  0.000000	  0.000000	  0.000000
0.005500	  0.000000	  0.000000	  0.000000	  0.218510	  0.000000	 -0.344710	  0.000000	  0.000000	  0.000000	  0.000000	  0.000000	  0.000000	  0.922012	  0.000000	 -0.196548	  0.000000	  0.000000	  0.000000
0.006000	  0.000000	  0.000000	  0.000000	  0.217685	  0.000000	 -0.346468	  0.000000	  0.000000	  0.000000	  0.000000	  0.000000	  0.000000	  0.925033	  0.000000	 -0.195019	  0.000000	  0.000000	  0.000000
0.006500	  0.000000	  0.000000	  0.000000	  0.216859	  0.000000	 -0.348226	  0.000000	  0.000000	  0.000000	  0.000000	  0.000000	  0.000000	  0.928053	  0.000000	 -0.193491	  0.000000	  0.000000	  0.000000
0.007000	  0.000000	  0.000000	  0.000000	  0.216034	  0.000000	 -0.349984	  0.000000	  0.000000	  0.000000	  0.000000	  0.000000	  0.000000	  0.931074	  0.000000	 -0.191963	  0.000000	  0.000000	  0.000000
0.007500	  0.000000	  0.000000	  0.000000	  0.215208	  0.000000	 -0.351742	  0.000000	  0.000000	  0.000000	  0.000000	  0.000000	  0.000000	  0.934094	  0.000000	 -0.190435	  0.000000	  0.000000	  0.000000
0.008000	  0.000000	  0.000000	  0.000000	  0.214382	  0.000000	 -0.353500	  0.000000	  0.000000	  0.000000	  0.000000	  0.000000	  0.000000	  0.937114	  0.000000	 -0.188906	  0.000000	  0.000000	  0.000000
0.008500	  0.000000	  0.000000	  0.000000	  0.213557	  0.000000	 -0.355258	  0.000000	  0.000000	  0.000000	  0.000000	  0.000000	  0.000000	  0.940135	  0.000000	 -0.187378	  0.000000	  0.000000	  0.000000
0.009000	  0.000000	  0.000000	  0.000000	  0.212731	  0.000000	 -0.357016	  0.000000	  0.000000	  0.000000	  0.000000	  0.000000	  0.000000	  0.943155	  0.000000	 -0.185850	  0.000000	  0.000000	  0.000000
0.009500	  0.000000	  0.000000	  0.000000	  0.211906	  0.000000	 -0.358774	  0.000000	  0.000000	  0.000000	  0.000000	  0.000000	  0.000000	  0.946176	  0.000000	 -0.184321	  0.000000	  0.000000	  0.000000
0.010000	  0.000000	  0.000000	  0.000000	  0.211080	  0.000000	 -0.360532	  0.000000	  0.000000	  0.000000	  0.000000	  0.000000	  0.000000	  0.949196	  0.000000	 -0.182793	  0.000000	  0.000000	  0.000000
0.010500	  0.000000	  0.000000	  0.000000	  0.210228	  0.000000	 -0.362382	  0.000000	  0.000000	  0.000000	  0.000000	  0.000000	  0.000000	  0.952170	  0.000000	 -0.181393	  0.000000	  0.000000	  0.000000
0.011000	  0.000000	  0.000000	  0.000000	  0.209377	  0.000000	 -0.364232	  0.000000	  0.000000	  0.000000	  0.000000	  0.000000	  0.000000	  0.955143	  0.000000	 -0.179992	  0.000000	  0.000000	  0.000000
0.011500	  0.000000	  0.000000	  0.000000	  0.208525	  0.000000	 -0.366083	  0.000000	  0.000000	  0.000000	  0.000000	  0.000000	  0.000000	  0.958117	  0.000000	 -0.178591	  0.000000	  0.000000	  0.000000
0.012000	  0.000000	  0.000000	  0.000000	  0.207674	  0.000000	 -0.367933	  0.000000	  0.000000	  0.000000	  0.000000	  0.000000	  0.000000	  0.961090	  0.000000	 -0.177191	  0.000000	  0.000000	  0.000000
0.012500	  0.000000	  0.000000	  0.000000	  0.206822	  0.000000	 -0.369783	  0.000000	  0.000000	  0.000000	  0.000000	  0.000000	  0.000000	  0.964064	  0.000000	 -0.175791	  0.000000	  0.000000	  0.000000
0.013000	  0.000000	  0.000000	  0.000000	  0.205970	  0.000000	 -0.371633	  0.000000	  0.000000	  0.000000	  0.000000	  0.000000	  0.000000	  0.967038	  0.000000	 -0.174390	  0.000000	  0.000000	  0.000000
0.013500	  0.000000	  0.000000	  0.000000	  0.205119	  0.000000	 -0.373483	  0.000000	  0.000000	  0.000000	  0.000000	  0.000000	  0.000000	  0.970011	  0.000000	 -0.172990	  0.000000	  0.000000	  0.000000
0.014000	  0.000000	  0.000000	  0.000000	  0.204267	  0.000000	 -0.375334	  0.000000	  0.000000	  0.000000	  0.000000	  0.000000	  0.000000	  0.972985	  0.000000	 -0.171589	  0.000000	  0.000000	  0.000000
0.014500	  0.000000	  0.000000	  0.000000	  0.203416	  0.000000	 -0.377184	  0.000000	  0.000000	  0.000000	  0.000000	  0.000000	  0.000000	  0.975958	  0.000000	 -0.170189	  0.000000	  0.000000	  0.000000
0.015000	  0.000000	  0.000000	  0.000000	  0.202564	  0.000000	 -0.379034	  0.000000	  0.000000	  0.000000	  0.000000	  0.000000	  0.000000	  0.978932	  0.000000	 -0.168788	  0.000000	  0.000000	  0.000000
0.015500	  0.000000	  0.000000	  0.000000	  0.201487	  0.000000	 -0.381024	  0.000000	  0.000000	  0.000000	  0.000000	  0.000000	  0.000000	  0.981909	  0.000000	 -0.167650	  0.000000	  0.000000	  0.000000
0.016000	  0.000000	  0.000000	  0.000000	  0.200410	  0.000000	 -0.383014	  0.000000	  0.000000	  0.000000	  0.000000	  0.000000	  0.000000	  0.984887	  0.000000	 -0.166513	  0.000000	  0.000000	  0.000000
0.016500	  0.000000	  0.000000	  0.000000	  0.199333	  0.000000	 -0.385003	  0.000000	  0.000000	  0.000000	  0.000000	  0.000000	  0.000000	  0.987864	  0.000000	 -0.165375	  0.000000	  0.000000	  0.000000
0.017000	  0.000000	  0.000000	  0.000000	  0.198256	  0.000000	 -0.386993	  0.000000	  0.000000	  0.000000	  0.000000	  0.000000	  0.000000	  0.990842	  0.000000	 -0.164238	  0.000000	  0.000000	  0.000000
0.017500	  0.000000	  0.000000	  0.000000	  0.197178	  0.000000	 -0.388983	  0.000000	  0.000000	  0.000000	  0.000000	  0.000000	  0.000000	  0.993819	  0.000000	 -0.163100	  0.000000	  0.000000	  0.000000
0.018000	  0.000000	  0.000000	  0.000000	  0.196101	  0.000000	 -0.390973	  0.000000	  0.000000	  0.000000	  0.000000	  0.000000	  0.000000	  0.996796	  0.000000	 -0.161962	  0.000000	  0.000000	  0.000000
0.018500	  0.000000	  0.000000	  0.000000	  0.195024	  0.000000	 -0.392963	  0.000000	  0.000000	  0.000000	  0.000000	  0.000000	  0.000000	  0.999774	  0.000000	 -0.160825	  0.000000	  0.000000	  0.000000
0.019000	  0.000000	  0.000000	  0.000000	  0.193947	  0.000000	 -0.394952	  0.000000	  0.000000	  0.000000	  0.000000	  0.000000	  0.000000	  1.002751	  0.000000	 -0.159687	  0.000000	  0.000000	  0.000000
0.019500	  0.000000	  0.000000	  0.000000	  0.192870	  0.000000	 -0.396942	  0.000000	  0.000000	  0.000000	  0.000000	  0.000000	  0.000000	  1.005729	  0.000000	 -0.158550	  0.000000	  0.000000	  0.000000
0.020000	  0.000000	  0.000000	  0.000000	  0.191793	  0.000000	 -0.398932	  0.000000	  0.000000	  0.000000	  0.000000	  0.000000	  0.000000	  1.008706	  0.000000	 -0.157412	  0.000000	  0.000000	  0.000000
0.020500	  0.000000	  0.000000	  0.000000	  0.190866	  0.000000	 -0.400947	  0.000000	  0.000000	  0.000000	  0.000000	  0.000000	  0.000000	  1.011555	  0.000000	 -0.156539	  0.000000	  0.000000	  0.000000
0.021000	  0.000000	  0.000000	  0.000000	  0.189939	  0.000000	 -0.402962	  0.000000	  0.000000	  0.000000	  0.000000	  0.000000	  0.000000	  1.014405	  0.000000	 -0.155666	  0.000000	  0.000000	  0.000000
